<svg xmlns="http://www.w3.org/2000/svg" xmlns:xlink="http://www.w3.org/1999/xlink" width="38" height="38" viewBox="0 0 38 38">
  <defs>
    <clipPath id="clip-path">
      <rect id="사각형_297" data-name="사각형 297" width="38" height="38" transform="translate(13)" fill="none"/>
    </clipPath>
    <clipPath id="clip-path-2">
      <rect id="사각형_289" data-name="사각형 289" width="24.913" height="29.068" fill="#2994ff"/>
    </clipPath>
  </defs>
  <g id="ico-system-normal" transform="translate(-13)" clip-path="url(#clip-path)">
    <g id="그룹_707" data-name="그룹 707" transform="translate(19.94 4.596)" clip-path="url(#clip-path-2)">
      <path id="패스_436" data-name="패스 436" d="M398.842,28.991a1.106,1.106,0,0,0-1.612-.226l-.01.008a1.108,1.108,0,0,0-.238,1.43,5.522,5.522,0,0,1,0,6.26,1.108,1.108,0,0,0,.237,1.432l.006,0,0,0a1.109,1.109,0,0,0,.7.253,1.1,1.1,0,0,0,.9-.47,7.348,7.348,0,0,0,1-2.094,7.892,7.892,0,0,0,.327-2.274,7.67,7.67,0,0,0-1.323-4.327m-1.329.117-.01.008.01-.008a.654.654,0,0,1,.053-.039.654.654,0,0,0-.053.039m.392-.149h0m-.392,8.6-.01-.008.01.008c.017.014.035.027.053.039-.018-.012-.036-.025-.053-.039m.421.151h0" transform="translate(-375.252 -26.963)" fill="#2994ff"/>
      <path id="패스_437" data-name="패스 437" d="M346.147,64.575a1.1,1.1,0,0,0,.267,1.387l.007.006,0,0a1.106,1.106,0,0,0,1.655-.288,5.07,5.07,0,0,0,.689-2.651,5,5,0,0,0-.685-2.484,1.118,1.118,0,0,0-.955-.544h0a1.108,1.108,0,0,0-.7.253l-.013.011a1.1,1.1,0,0,0-.268,1.385,2.822,2.822,0,0,1,0,2.922m.981-4.126h0m.019,5.328h0m-.236-3.393c-.015-.062-.032-.124-.051-.186.019.062.036.124.051.186m-.217,2.093q-.047.1-.1.209.054-.1.1-.209" transform="translate(-327.203 -56.743)" fill="#2994ff"/>
      <path id="패스_438" data-name="패스 438" d="M301.988,94.991l.045.037a1.091,1.091,0,0,0,1.765-.621,2.858,2.858,0,0,0,.038-1.021,1.09,1.09,0,0,0-1.069-.87h0a1.094,1.094,0,0,0-.7.252l-.027.023a1.089,1.089,0,0,0-.4.925.449.449,0,0,1-.005.144,1.1,1.1,0,0,0,.349,1.132m1.41-1.518q.007.036.012.073,0-.038-.012-.073a.648.648,0,0,0-.021-.077.648.648,0,0,1,.021.077m-.632-.512.056,0a.639.639,0,0,0-.072,0h.015m.019,1.87-.057,0h-.014a.636.636,0,0,0,.071,0m-.458-1.7.027-.023-.027.023q-.023.019-.044.04.021-.021.044-.04m-.239.545c0,.025,0,.05,0,.074,0-.025,0-.05,0-.074a.58.58,0,0,1,0-.077.58.58,0,0,0,0,.077" transform="translate(-285.209 -87.488)" fill="#2994ff"/>
      <path id="패스_439" data-name="패스 439" d="M2.236,38.863a1.1,1.1,0,0,0,.7-.252l.01-.008a1.108,1.108,0,0,0,.238-1.43,5.522,5.522,0,0,1,0-6.26,1.108,1.108,0,0,0-.237-1.432l-.01-.008a1.11,1.11,0,0,0-.7-.253,1.1,1.1,0,0,0-.9.47,7.347,7.347,0,0,0-1,2.094A7.886,7.886,0,0,0,0,34.059a7.669,7.669,0,0,0,1.323,4.327,1.112,1.112,0,0,0,.912.478m.417-.6a.66.66,0,0,1-.053.039.66.66,0,0,0,.053-.039l.01-.008-.01.008m.152-.861q.016.026.03.053-.013-.027-.03-.053-.113-.185-.215-.369.1.184.215.369m-.544,1.01h0m.582-8.357a.654.654,0,0,0-.094-.149.654.654,0,0,1,.094.149m-.18-.234q.024.02.045.041-.022-.021-.045-.041l-.01-.008.01.008m-.431-.16h0" transform="translate(-0.001 -27.632)" fill="#2994ff"/>
      <path id="패스_440" data-name="패스 440" d="M63.206,66.944a1.107,1.107,0,0,0,.7-.253l0,0,.008-.007a1.1,1.1,0,0,0,.268-1.385,2.822,2.822,0,0,1,0-2.922,1.1,1.1,0,0,0-.267-1.387l-.007-.006,0,0a1.112,1.112,0,0,0-.705-.253h0a1.105,1.105,0,0,0-.95.541,5.07,5.07,0,0,0-.689,2.651A5,5,0,0,0,62.25,66.4a1.118,1.118,0,0,0,.955.543m0-.445h0m0-5.329h0m-.571,5h0a4.163,4.163,0,0,1-.2-.381,4.163,4.163,0,0,0,.2.381" transform="translate(-58.219 -57.425)" fill="#2994ff"/>
      <path id="패스_441" data-name="패스 441" d="M116.173,94.572a1.094,1.094,0,0,0,.7-.252l.027-.023a1.089,1.089,0,0,0,.4-.925.447.447,0,0,1,.005-.144,1.1,1.1,0,0,0-.349-1.132l-.045-.037a1.091,1.091,0,0,0-1.765.621A2.856,2.856,0,0,0,115.1,93.7a1.09,1.09,0,0,0,1.069.87m.72-1.645a.678.678,0,0,0-.015-.138.678.678,0,0,1,.015.138m-.042.483a.6.6,0,0,1,0,.077.6.6,0,0,0,0-.077c0-.025,0-.05,0-.074,0,.025,0,.05,0,.074m-.229-1.007.045.037-.045-.037-.032-.024.032.024m-.01,1.552q.023-.019.044-.04-.021.021-.044.04l-.027.023.027-.023m-.4-1.7h.015a.667.667,0,0,0-.071,0l.057,0m-.023,1.872h-.015l-.056,0a.656.656,0,0,0,.072,0" transform="translate(-108.818 -86.819)" fill="#2994ff"/>
      <path id="패스_442" data-name="패스 442" d="M45.221,26.348h-.252c-.22,0-.407,0-.578.006-2.049-5.455-4.275-11.364-6.8-18.059a2.934,2.934,0,0,0-.927-4.529c.006-.761.006-1.531.006-2.276v-.1c0-.007,0-.015,0-.022s0-.006,0-.008a1.358,1.358,0,0,0-2.716-.018c0,.012,0,.028,0,.047v.1c0,.747,0,1.519,0,2.281A2.936,2.936,0,0,0,33.016,8.3c-2.415,6.394-4.642,12.3-6.8,18.056-.171,0-.358,0-.577,0h-.241a1.236,1.236,0,0,0-1.23,1.234v.251A1.236,1.236,0,0,0,25.4,29.068H45.216a1.236,1.236,0,0,0,1.234-1.234v-.252a1.237,1.237,0,0,0-1.229-1.234M35.569,9.078q1.146,3.074,2.291,6.148a.171.171,0,0,1-.16.231H32.9a.161.161,0,0,1-.15-.217c.3-.8.589-1.585.881-2.369q.705-1.893,1.412-3.785c.046-.122.062-.246.26-.247s.22.115.267.239m.53,8.986-.386.368a.544.544,0,0,1-.751,0l-.384-.368a.544.544,0,0,1,.376-.936h.77a.543.543,0,0,1,.375.937m-6.291,5.991a.2.2,0,0,1-.324-.179c0-.024.009-.039.009-.039l.012-.031,1.949-5.145a.692.692,0,0,1,1.125-.254l1.053,1.009a.692.692,0,0,1,0,1l-3.816,3.633-.005.005m9.884,2.821H30.94a.691.691,0,0,1-.477-1.192l4.39-4.181a.692.692,0,0,1,.955,0l4.362,4.181a.691.691,0,0,1-.478,1.19M40.782,24c-.022-.014-.035-.025-.035-.025h0l-3.709-3.556a.691.691,0,0,1,0-1l1.015-.967a.692.692,0,0,1,1.124.256l1.91,5.041h0l0,.007a.208.208,0,0,1-.309.243" transform="translate(-22.851)" fill="#2994ff"/>
    </g>
  </g>
</svg>
