<svg xmlns="http://www.w3.org/2000/svg" xmlns:xlink="http://www.w3.org/1999/xlink" width="285.087" height="118.947" viewBox="0 0 285.087 118.947">
  <defs>
    <clipPath id="clip-path">
      <rect id="사각형_242" data-name="사각형 242" width="285.087" height="118.947" transform="translate(0 0)" fill="none"/>
    </clipPath>
    <clipPath id="clip-path-2">
      <rect id="사각형_243" data-name="사각형 243" width="265.087" height="98.947" transform="translate(0 0)" fill="none"/>
    </clipPath>
  </defs>
  <g id="logo" transform="translate(-831 -281)">
    <g id="그룹_677" data-name="그룹 677" transform="translate(831 281)">
      <g id="그룹_676" data-name="그룹 676" clip-path="url(#clip-path)">
        <path id="패스_302" data-name="패스 302" d="M257.166,116.33h1.011l.041,0c1.149,1.523,4.234,2.619,6.723,2.619a9.968,9.968,0,0,0,2.748-.386,14.511,14.511,0,0,0,4.035-1.94l.046-.032a17.958,17.958,0,0,0,5.687-6.783l2.406-4.683a9.923,9.923,0,0,0,.775-1.877,10.513,10.513,0,0,0,4.45-8.776,10.914,10.914,0,0,0-.508-3.285,11.223,11.223,0,0,0,.483-3.29,10.6,10.6,0,0,0-10.071-10.643,10.654,10.654,0,0,0-6.176-1.942c-.028,0-.066,0-.094,0A17.329,17.329,0,0,0,255.652,81h-111.5a12.106,12.106,0,0,0,.2-3.478,13.373,13.373,0,0,0,3.622-2.6,14.13,14.13,0,0,0,1.3-1.539,12.316,12.316,0,0,0,14.2-8.568,12.774,12.774,0,0,0-.707-10.361,12.367,12.367,0,0,0-2.981-3.62,13.148,13.148,0,0,0,.69-4.063,14.26,14.26,0,0,0-.171-2.3,12.742,12.742,0,0,0,4.391-5.285,12.547,12.547,0,0,0-.52-10.978,12.514,12.514,0,0,0-11.171-7.044c-.4,0-.792.025-1.187.061a14.314,14.314,0,0,0-1.788-2.808,13.128,13.128,0,0,0-2.335-2.21,12.207,12.207,0,0,0-.447-6.154A12.544,12.544,0,0,0,140.361,2.7a13.837,13.837,0,0,0-5.673-1.253A12.068,12.068,0,0,0,125.2,5.942a13.784,13.784,0,0,0-3.857-.716c-.192-.008-.38-.012-.566-.012a12.924,12.924,0,0,0-1.913.158A12.2,12.2,0,0,0,110.743.206,13.438,13.438,0,0,0,108.408,0a12.808,12.808,0,0,0-10.2,5.062,12.132,12.132,0,0,0-2.59,8.8,12.425,12.425,0,0,0-6.82,8.067A12.816,12.816,0,0,0,93.736,35.86c1.2.916,2.448,1.824,3.7,2.725H91.643a9.948,9.948,0,0,0-1.433.1,30.381,30.381,0,0,0-12.085,4.877q-.354-.458-.736-.9a21.224,21.224,0,0,0-10.328-6.48l.087-.507a10,10,0,0,0-9.853-11.706H40.113A10,10,0,0,0,30.26,32.27l-.535,3.088h-1.84A25.855,25.855,0,0,0,2.771,57.3L.231,75.373A20.623,20.623,0,0,0,4.906,92.055a21.523,21.523,0,0,0,16.463,7.186l33.1.858c.086,0,.173,0,.259,0a24.079,24.079,0,0,0,6-.764l-1.317,7.817a10,10,0,0,0,9.86,11.662h7.745a9.989,9.989,0,0,0,7.751-3.69,9.977,9.977,0,0,0,4.724,1.2h4.049m59.7-85.142a2.54,2.54,0,0,0-.418,0c.064,0,.13-.018.193-.018s.15.008.225.015m-.651.026c-.1.015-.208.041-.313.066v0c.1-.026.209-.049.312-.064m-.982,32.4,0-.014c.055,0,.111.005.165,0-.054,0-.107.012-.161.013M134.368,78.925a2.719,2.719,0,0,0-.017-1.045,2.719,2.719,0,0,1,.017,1.045M108.488,81a9.99,9.99,0,0,0,5.925-7.539l.957-5.741c.388,1.466.845,3.174,1.381,5.174.8,2.97,1.549,5.775,1.979,7.5.053.213.119.406.177.611Zm25-.507c-.028.027-.056.056-.085.082.029-.026.057-.055.085-.082m-.54.416c-.03.018-.062.032-.093.048.031-.016.063-.03.093-.048m-.314-68.133.022-.039c-.007.014-.012.031-.019.046l0-.007m-28.27,43.489c-.3-.007-.616-.013-.951-.018.335,0,.654.011.951.018m-1.542-.027c-.359,0-.734-.009-1.119-.012.385,0,.76.007,1.119.012m-9.545.256c1.941-.212,4.684-.273,7.185-.273-2.5,0-5.244.061-7.185.273-.324.035-.625.074-.9.118s-.521.093-.736.147c.215-.054.462-.1.736-.147s.575-.083.9-.118m59.663,6.66a2.551,2.551,0,0,0,.4-.365,2.551,2.551,0,0,1-.4.365m-1.058.442a2.286,2.286,0,0,0,.487-.122,2.227,2.227,0,0,1-.487.122m.572-.161a2.173,2.173,0,0,0,.378-.206,2.173,2.173,0,0,1-.378.206m1.224-1.135a3.161,3.161,0,0,1-.3.436,3.252,3.252,0,0,0,.3-.436m.081-.142a4.317,4.317,0,0,0,.269-.609,4.317,4.317,0,0,1-.269.609m1.954-27.946a3.391,3.391,0,0,0-.41-1.392,4.359,4.359,0,0,0-.41-.644,4.359,4.359,0,0,1,.41.644,3.391,3.391,0,0,1,.41,1.392m-.872-2.106a2.829,2.829,0,0,0-.429-.432,2.829,2.829,0,0,1,.429.432m-1.545-.914a2.154,2.154,0,0,1,.5.124,2.154,2.154,0,0,0-.5-.124m.58.155a2.244,2.244,0,0,1,.458.265,2.244,2.244,0,0,0-.458-.265M137.9,14.014h0c0-.04.01-.082.008-.121,0,.039-.008.081-.008.121m-1.045-1.866a2.286,2.286,0,0,1,.971,1.249,2.286,2.286,0,0,0-.971-1.249,3.749,3.749,0,0,0-.578-.318h0a3.749,3.749,0,0,1,.578.318m-2.034-.681a2.674,2.674,0,0,0-.3-.005c.055,0,.109-.012.166-.012.042,0,.088.015.13.017m.715.106c-.074-.019-.145-.03-.218-.044.073.014.144.025.218.044m-2.135.272a2.124,2.124,0,0,0-.366.322,2.124,2.124,0,0,1,.366-.322m1-.374a2.316,2.316,0,0,0-.468.1,2.316,2.316,0,0,1,.468-.1m-.528.124a1.994,1.994,0,0,0-.37.184,1.994,1.994,0,0,1,.37-.184m-1.144,1.013a2.662,2.662,0,0,1,.279-.406,2.614,2.614,0,0,0-.279.406M109,10.054a3.268,3.268,0,0,0-.732-.039c.046,0,.089-.015.136-.015a3.43,3.43,0,0,1,.6.054m-1-.009a2.66,2.66,0,0,0-.465.1,2.66,2.66,0,0,1,.465-.1m-.711.195a2.731,2.731,0,0,0-.433.245,2.655,2.655,0,0,1,.433-.245m-.626.374a3.235,3.235,0,0,0-.542.548,3.235,3.235,0,0,1,.542-.548" fill="#e8edf5"/>
      </g>
    </g>
    <g id="그룹_679" data-name="그룹 679" transform="translate(841 291)">
      <g id="그룹_678" data-name="그룹 678" clip-path="url(#clip-path-2)">
        <path id="패스_303" data-name="패스 303" d="M81.641,38.585S73.3,39.792,69.6,46.329c-1.157,2.041-2.366,7.744-2.366,7.744h-5.51l.756-5.378A11.351,11.351,0,0,0,51.012,35.358H17.884A15.919,15.919,0,0,0,2.672,48.695L.133,66.765C-.9,74.1,4.178,79.242,11.513,79.242l33.211.86A15.919,15.919,0,0,0,59.935,66.765l.232-1.646H52.588c-.8,4.235-2.419,6.378-7.086,6.378h-28.4c-5.149,0-8.9-1.734-8.174-6.883l.333-2.8H53.083l0,.008H60.63v-.008h4.876l-6.238,37h7.744l6.454-37H94.548l1.291-7.744H74.758l.86-3.012a4.63,4.63,0,0,1,1.721-2.151c1.291-.86.86-1.291,4.3-2.151s15.058-.43,15.058-.43h5.163l3.012-7.744ZM10.187,54.073l.294-2.47c.724-5.149,3.2-8.071,8.346-8.071H49.374c5.149,0,5.886,2.6,5.162,7.744l-.385,2.8Z" fill="#2b2b2b"/>
        <path id="패스_304" data-name="패스 304" d="M141.831,47.751c-6.484-1.643-12.743-4.141-19.565-5.229.272.348,11.967,7.454,17.732,10.655,1.708.948,3.338.37,4.03-1.628.7-2.027-.342-3.328-2.2-3.8" fill="#329e37"/>
        <path id="패스_305" data-name="패스 305" d="M117.086,22.36c-.13-.063-.065-.032,0,0" fill="#329e37"/>
        <path id="패스_306" data-name="패스 306" d="M127.477,5.527a2.408,2.408,0,0,0-1.2-3.7c-1.736-.777-3.273-.4-3.849,1.47-1.942,6.294-3.488,12.738-5.338,19.06,1.927-2.89,3.514-4.763,5.014-7.271q2.815-4.707,5.377-9.562" fill="#329e37"/>
        <path id="패스_307" data-name="패스 307" d="M145.3,22.82c-1.112-2.143-2.783-1.9-4.522-.933-5.009,2.78-16.951,9.625-18.316,10.581.4.007,4.278-1.119,4.278-1.119,5.347-1.415,10.706-2.792,16.038-4.26,2.666-.734,3.539-2.306,2.522-4.269" fill="#329e37"/>
        <path id="패스_308" data-name="패스 308" d="M105.6,18.325q-2.007-7.52-4.012-15.04C101.2,1.824,100.795.37,99,.054a2.823,2.823,0,0,0-2.875,1.108c-1.118,1.452-.4,2.79.354,4.1q4.035,7.012,8.072,14.025s1.815,3.331,1.953,3.326c-.092-.19-.618-3.095-.91-4.29h0" fill="#329e37"/>
        <path id="패스_309" data-name="패스 309" d="M113.391,48.461c.313,2.107,3.826,14.65,5.039,19.5.373,1.492.875,2.888,2.634,3.224a2.64,2.64,0,0,0,2.832-1.172c1.023-1.483.327-2.837-.418-4.151-2.525-4.451-8.593-16-10.087-17.4" fill="#329e37"/>
        <path id="패스_310" data-name="패스 310" d="M130.45,53.564c-3.627-2.815-7.772-5.318-11.437-8.084-.147.176,4.973,8.049,7.593,11.827,1.077,1.553,2.742,2.119,4.275.575,1.464-1.475,1.144-3.1-.431-4.318" fill="#329e37"/>
        <path id="패스_311" data-name="패스 311" d="M119.976,26.695c3.988-2.666,8.154-5.271,12.084-8.019,1.53-1.07,1.283-2.637.236-3.914a2.247,2.247,0,0,0-3.64-.159c-3.141,3.747-8.868,11.895-8.68,12.092" fill="#329e37"/>
        <path id="패스_312" data-name="패스 312" d="M90.481,12.691A2.524,2.524,0,0,0,88.43,14.6,2.939,2.939,0,0,0,89.8,17.91c3.6,2.745,7.792,5.561,11.391,8.3.169-.144-5.018-8.093-7.515-11.865-.738-1.115-1.691-1.972-3.195-1.658" fill="#329e37"/>
        <path id="패스_313" data-name="패스 313" d="M122.866,35.847c0-.069.007-.139,0,0" fill="#329e37"/>
        <path id="패스_314" data-name="패스 314" d="M140.48,36.671c.018-1.723-.9-3.007-2.7-2.818-4.767.5-10.163,1.365-14.916,1.994,4.774.914,10.145,2.619,14.945,3.364a2.33,2.33,0,0,0,2.669-2.54" fill="#329e37"/>
        <path id="패스_315" data-name="패스 315" d="M122.866,35.847c-.007.139,0,.07,0,0" fill="#329e37"/>
        <path id="패스_316" data-name="패스 316" d="M110.93,5.217a2.421,2.421,0,0,0-2.684,2.821c.47,4.546,1.49,10.272,2.1,14.8.295-.009,2.443-10.048,3.241-14.482.341-1.9-.811-3.066-2.654-3.142" fill="#329e37"/>
        <path id="패스_317" data-name="패스 317" d="M45.785,32.691H28.6l1.509-8.714H47.294Z" fill="#329e37"/>
        <path id="패스_318" data-name="패스 318" d="M84.122,92.331H81.546l-.756,3.2h2.944l-.2.8H79.489l1.978-8.382h3.868l-.2.8h-2.73l-.683,2.807h2.584Z" fill="#2b2b2b"/>
        <path id="패스_319" data-name="패스 319" d="M92.936,88.45a2.058,2.058,0,0,0-.566-.065c-.859,0-1.346.836-1.508,1.642l-.063.289h1.43l-.164.7H90.64L89.363,96.33h-1.1l1.267-5.316H87.188L85.92,96.33h-1.1l1.266-5.316h-.93l.154-.7h.945l.084-.322a3.173,3.173,0,0,1,1-1.756,2.472,2.472,0,0,1,1.6-.514,1.933,1.933,0,0,1,.771.166l-.356.688a1.172,1.172,0,0,0-.506-.106c-.852,0-1.218.74-1.427,1.594l-.066.25H89.7l.09-.369a3.287,3.287,0,0,1,1.042-1.811,2.582,2.582,0,0,1,1.584-.511,2.542,2.542,0,0,1,.791.106Z" fill="#2b2b2b"/>
        <path id="패스_320" data-name="패스 320" d="M95.588,96.03a4.263,4.263,0,0,1-1.765.375,1.893,1.893,0,0,1-2.1-2.124c0-1.637,1.136-4.064,3.278-4.064a1.36,1.36,0,0,1,1.545,1.365c0,1.458-1.6,2.08-3.656,2.083a3.133,3.133,0,0,0,.047,1.215,1.1,1.1,0,0,0,1.15.777,3,3,0,0,0,1.335-.325Zm-.754-5.05c-.667,0-1.376.659-1.793,1.964,1.195,0,2.462-.325,2.462-1.3a.6.6,0,0,0-.669-.666" fill="#2b2b2b"/>
        <path id="패스_321" data-name="패스 321" d="M100.236,96.235a3.9,3.9,0,0,1-1.227.17,1.9,1.9,0,0,1-2.044-2.149,3.928,3.928,0,0,1,3.74-4.032,2.1,2.1,0,0,1,.739.1l-.3.761a2.034,2.034,0,0,0-.547-.079c-1.563,0-2.489,1.787-2.489,3.147,0,.879.324,1.477,1.2,1.477a3.206,3.206,0,0,0,.913-.15Z" fill="#2b2b2b"/>
        <path id="패스_322" data-name="패스 322" d="M104.457,88.732l-.4,1.585h1.416l-.166.689H103.89l-.8,3.436a3.819,3.819,0,0,0-.112.759c0,.3.149.456.523.456a2.371,2.371,0,0,0,.449-.025l-.088.7a3.686,3.686,0,0,1-.8.082c-.8,0-1.255-.368-1.255-.962a3.96,3.96,0,0,1,.146-.974l.821-3.471h-.9l.153-.689h.917L103.262,89Z" fill="#2b2b2b"/>
        <path id="패스_323" data-name="패스 323" d="M105.069,96.33l1.436-6.014h1.112l-1.435,6.014Zm1.687-7.543a.733.733,0,0,1,.748-.642c.436,0,.642.261.609.586a.719.719,0,0,1-.778.638c-.4,0-.611-.237-.579-.582" fill="#2b2b2b"/>
        <path id="패스_324" data-name="패스 324" d="M109.737,90.317l.113,3.4c0,.651.027,1.028-.02,1.476h.053c.168-.427.379-.857.666-1.443l1.739-3.435h1.13L110.1,96.331h-1.074l-.434-6.014Z" fill="#2b2b2b"/>
        <path id="패스_325" data-name="패스 325" d="M117.022,96.03a4.26,4.26,0,0,1-1.765.375,1.893,1.893,0,0,1-2.1-2.124c0-1.637,1.137-4.064,3.278-4.064a1.36,1.36,0,0,1,1.545,1.365c0,1.458-1.6,2.08-3.656,2.083a3.133,3.133,0,0,0,.047,1.215,1.1,1.1,0,0,0,1.15.777,3,3,0,0,0,1.335-.325Zm-.753-5.05c-.668,0-1.377.659-1.794,1.964,1.195,0,2.463-.325,2.463-1.3a.6.6,0,0,0-.669-.666" fill="#2b2b2b"/>
        <path id="패스_326" data-name="패스 326" d="M124.539,96.03a4.263,4.263,0,0,1-1.765.375,1.893,1.893,0,0,1-2.1-2.124c0-1.637,1.136-4.064,3.278-4.064a1.36,1.36,0,0,1,1.545,1.365c0,1.458-1.6,2.08-3.656,2.083a3.133,3.133,0,0,0,.047,1.215,1.1,1.1,0,0,0,1.15.777,3,3,0,0,0,1.335-.325Zm-.754-5.05c-.667,0-1.376.659-1.793,1.964,1.195,0,2.462-.325,2.462-1.3a.6.6,0,0,0-.669-.666" fill="#2b2b2b"/>
        <path id="패스_327" data-name="패스 327" d="M125.65,96.33l.928-3.957c.209-.873.311-1.574.392-2.057h.978l-.127.948h.03a2.528,2.528,0,0,1,2.019-1.047,1.15,1.15,0,0,1,1.291,1.21,3.893,3.893,0,0,1-.144.987L130.1,96.33h-1.113l.916-3.9a3.237,3.237,0,0,0,.11-.829c0-.372-.189-.61-.647-.61-.71,0-1.547.859-1.815,1.993l-.788,3.35Z" fill="#2b2b2b"/>
        <path id="패스_328" data-name="패스 328" d="M135.869,96.03a4.263,4.263,0,0,1-1.765.375,1.893,1.893,0,0,1-2.1-2.124c0-1.637,1.136-4.064,3.278-4.064a1.36,1.36,0,0,1,1.545,1.365c0,1.458-1.6,2.08-3.656,2.083a3.133,3.133,0,0,0,.047,1.215,1.1,1.1,0,0,0,1.15.777,3,3,0,0,0,1.335-.325Zm-.754-5.05c-.667,0-1.376.659-1.793,1.964,1.195,0,2.462-.325,2.462-1.3a.6.6,0,0,0-.669-.666" fill="#2b2b2b"/>
        <path id="패스_329" data-name="패스 329" d="M136.98,96.33l.949-4.044a16.14,16.14,0,0,0,.327-1.97h.978a10.413,10.413,0,0,1-.119,1.126h.04a2.3,2.3,0,0,1,1.876-1.225,1.89,1.89,0,0,1,.2.01l-.217.942c-.034,0-.1-.008-.149-.008-.992,0-1.822,1.112-2.037,2.012l-.74,3.157Z" fill="#2b2b2b"/>
        <path id="패스_330" data-name="패스 330" d="M140.61,97.807a3.123,3.123,0,0,0,1.214.267c1.128,0,1.6-.659,1.895-1.771l.252-.947h-.031a2.143,2.143,0,0,1-1.787,1.029c-.868,0-1.422-.614-1.431-1.741-.019-1.777,1.164-4.427,3.849-4.427a4.581,4.581,0,0,1,1.585.293l-1.219,5.208a4.366,4.366,0,0,1-1.18,2.472,3.023,3.023,0,0,1-1.993.628,3.559,3.559,0,0,1-1.474-.287Zm4.311-6.744a1.5,1.5,0,0,0-.645-.1c-1.532,0-2.386,2.119-2.418,3.373-.022.705.106,1.3.75,1.3.815,0,1.481-1.134,1.671-1.917Z" fill="#2b2b2b"/>
        <path id="패스_331" data-name="패스 331" d="M148.215,90.317l.24,3.361c.032.55.048.9.082,1.5h.032c.193-.519.414-.983.657-1.523l1.561-3.334h1.146L149.425,95.2a8.4,8.4,0,0,1-2.472,3.147,4.608,4.608,0,0,1-1.169.6l-.449-.762a4.99,4.99,0,0,0,1.124-.577A3.928,3.928,0,0,0,147.67,96.3a.506.506,0,0,0,.058-.332l-.669-5.651Z" fill="#2b2b2b"/>
        <path id="패스_332" data-name="패스 332" d="M153.874,96.33l.928-3.957c.209-.873.311-1.574.392-2.057h.978l-.127.966h.03a2.449,2.449,0,0,1,1.957-1.065,1.119,1.119,0,0,1,1.216,1.056,2.532,2.532,0,0,1,1.982-1.056,1.136,1.136,0,0,1,1.252,1.206,5.062,5.062,0,0,1-.169,1.09l-.9,3.817h-1.1l.9-3.837a3.828,3.828,0,0,0,.124-.931.538.538,0,0,0-.615-.583c-.679,0-1.463.817-1.747,1.994l-.8,3.357H157.1l.9-3.837a3.6,3.6,0,0,0,.124-.916.536.536,0,0,0-.6-.6c-.626,0-1.488.867-1.751,1.994l-.788,3.357Z" fill="#2b2b2b"/>
        <path id="패스_333" data-name="패스 333" d="M166.557,96.331c.015-.341.063-.673.111-1.144h-.04a2.388,2.388,0,0,1-1.955,1.243c-.873,0-1.4-.6-1.4-1.695,0-1.827,1.212-4.517,4.114-4.517a4.488,4.488,0,0,1,1.375.195l-.87,3.439a10.78,10.78,0,0,0-.321,2.479Zm.947-5.342a2.048,2.048,0,0,0-.459-.046c-1.676,0-2.617,2.208-2.65,3.526-.022.756.16,1.187.69,1.187.754,0,1.56-1.186,1.855-2.386Z" fill="#2b2b2b"/>
        <path id="패스_334" data-name="패스 334" d="M168.954,96.33l.928-3.957c.209-.873.311-1.574.392-2.057h.978l-.127.948h.03a2.528,2.528,0,0,1,2.019-1.047,1.15,1.15,0,0,1,1.291,1.21,3.893,3.893,0,0,1-.144.987L173.4,96.33h-1.113l.916-3.9a3.237,3.237,0,0,0,.11-.829c0-.372-.189-.61-.647-.61-.71,0-1.547.859-1.815,1.993l-.788,3.35Z" fill="#2b2b2b"/>
        <path id="패스_335" data-name="패스 335" d="M178.537,96.331c.015-.341.063-.673.111-1.144h-.04a2.388,2.388,0,0,1-1.955,1.243c-.873,0-1.4-.6-1.4-1.695,0-1.827,1.213-4.517,4.114-4.517a4.488,4.488,0,0,1,1.375.195l-.87,3.439a10.78,10.78,0,0,0-.321,2.479Zm.947-5.342a2.048,2.048,0,0,0-.459-.046c-1.676,0-2.617,2.208-2.65,3.526-.022.756.16,1.187.69,1.187.754,0,1.56-1.186,1.855-2.386Z" fill="#2b2b2b"/>
        <path id="패스_336" data-name="패스 336" d="M181.03,97.807a3.123,3.123,0,0,0,1.214.267c1.128,0,1.6-.659,1.9-1.771l.252-.947h-.032a2.141,2.141,0,0,1-1.787,1.029c-.867,0-1.422-.614-1.43-1.741-.019-1.777,1.164-4.427,3.849-4.427a4.581,4.581,0,0,1,1.585.293l-1.219,5.208a4.366,4.366,0,0,1-1.18,2.472,3.023,3.023,0,0,1-1.993.628,3.559,3.559,0,0,1-1.474-.287Zm4.311-6.744a1.5,1.5,0,0,0-.645-.1c-1.532,0-2.386,2.119-2.418,3.373-.022.705.106,1.3.75,1.3.815,0,1.481-1.134,1.671-1.917Z" fill="#2b2b2b"/>
        <path id="패스_337" data-name="패스 337" d="M190.951,96.03a4.263,4.263,0,0,1-1.765.375,1.893,1.893,0,0,1-2.1-2.124c0-1.637,1.136-4.064,3.278-4.064a1.36,1.36,0,0,1,1.545,1.365c0,1.458-1.6,2.08-3.656,2.083a3.133,3.133,0,0,0,.047,1.215,1.1,1.1,0,0,0,1.15.777,3,3,0,0,0,1.335-.325Zm-.754-5.05c-.667,0-1.376.659-1.793,1.964,1.195,0,2.462-.325,2.462-1.3a.6.6,0,0,0-.669-.666" fill="#2b2b2b"/>
        <path id="패스_338" data-name="패스 338" d="M192.062,96.33l.928-3.957c.209-.873.311-1.574.392-2.057h.978l-.127.966h.03a2.449,2.449,0,0,1,1.957-1.065,1.119,1.119,0,0,1,1.216,1.056,2.532,2.532,0,0,1,1.982-1.056,1.136,1.136,0,0,1,1.252,1.206,5.062,5.062,0,0,1-.169,1.09l-.9,3.817h-1.1l.9-3.837a3.828,3.828,0,0,0,.124-.931.538.538,0,0,0-.615-.583c-.679,0-1.463.817-1.747,1.994l-.8,3.357h-1.085l.9-3.837a3.6,3.6,0,0,0,.124-.916.536.536,0,0,0-.6-.6c-.626,0-1.488.867-1.751,1.994l-.788,3.357Z" fill="#2b2b2b"/>
        <path id="패스_339" data-name="패스 339" d="M205.381,96.03a4.263,4.263,0,0,1-1.765.375,1.893,1.893,0,0,1-2.1-2.124c0-1.637,1.136-4.064,3.278-4.064a1.36,1.36,0,0,1,1.545,1.365c0,1.458-1.6,2.08-3.656,2.083a3.133,3.133,0,0,0,.047,1.215,1.1,1.1,0,0,0,1.15.777,3,3,0,0,0,1.335-.325Zm-.754-5.05c-.667,0-1.376.659-1.793,1.964,1.2,0,2.462-.325,2.462-1.3a.6.6,0,0,0-.669-.666" fill="#2b2b2b"/>
        <path id="패스_340" data-name="패스 340" d="M206.492,96.33l.928-3.957c.209-.873.311-1.574.392-2.057h.978l-.127.948h.03a2.528,2.528,0,0,1,2.019-1.047A1.15,1.15,0,0,1,212,91.427a3.894,3.894,0,0,1-.144.987l-.917,3.916h-1.113l.916-3.9a3.237,3.237,0,0,0,.11-.829c0-.372-.189-.61-.647-.61-.71,0-1.547.859-1.815,1.993l-.788,3.35Z" fill="#2b2b2b"/>
        <path id="패스_341" data-name="패스 341" d="M215.691,88.732l-.4,1.585h1.416l-.166.689h-1.419l-.8,3.436a3.818,3.818,0,0,0-.112.759c0,.3.149.456.523.456a2.371,2.371,0,0,0,.449-.025l-.088.7a3.686,3.686,0,0,1-.8.082c-.8,0-1.255-.368-1.255-.962a3.96,3.96,0,0,1,.146-.974l.821-3.471h-.9l.153-.689h.917L214.5,89Z" fill="#2b2b2b"/>
        <path id="패스_342" data-name="패스 342" d="M222.118,96.235a3.9,3.9,0,0,1-1.227.17,1.9,1.9,0,0,1-2.044-2.149,3.928,3.928,0,0,1,3.74-4.032,2.106,2.106,0,0,1,.739.1l-.3.761a2.034,2.034,0,0,0-.547-.079c-1.563,0-2.489,1.787-2.489,3.147,0,.879.324,1.477,1.2,1.477a3.206,3.206,0,0,0,.913-.15Z" fill="#2b2b2b"/>
        <path id="패스_343" data-name="패스 343" d="M228.1,92.178c0,1.52-.934,4.252-3.232,4.252-1.381,0-1.817-.976-1.817-2.04,0-1.621,1.073-4.173,3.312-4.173,1.507,0,1.737,1.151,1.737,1.961M224.186,94.3c0,.684.06,1.391.853,1.391,1.362,0,1.934-2.557,1.934-3.573,0-.624-.136-1.167-.794-1.167-1.241,0-2,2.171-1.993,3.349" fill="#2b2b2b"/>
        <path id="패스_344" data-name="패스 344" d="M228.531,96.33l.928-3.957c.209-.873.311-1.574.392-2.057h.978l-.127.966h.03a2.449,2.449,0,0,1,1.957-1.065,1.119,1.119,0,0,1,1.216,1.056,2.532,2.532,0,0,1,1.982-1.056,1.136,1.136,0,0,1,1.252,1.206,5.061,5.061,0,0,1-.169,1.09l-.9,3.817h-1.1l.9-3.837a3.828,3.828,0,0,0,.124-.931.538.538,0,0,0-.615-.583c-.679,0-1.463.817-1.746,1.994l-.8,3.357h-1.085l.9-3.837a3.6,3.6,0,0,0,.124-.916.536.536,0,0,0-.605-.6c-.626,0-1.488.867-1.751,1.994l-.787,3.357Z" fill="#2b2b2b"/>
        <path id="패스_345" data-name="패스 345" d="M237.159,98.718l1.479-6.275c.2-.864.323-1.619.425-2.126h.983l-.158.976h.032a2.51,2.51,0,0,1,1.93-1.076c1.093,0,1.385.811,1.385,1.712,0,1.867-1.221,4.5-3.455,4.5a2.012,2.012,0,0,1-.9-.194h-.037l-.58,2.482Zm1.863-3.239a1.3,1.3,0,0,0,.726.226c1.725,0,2.349-2.758,2.349-3.652,0-.579-.145-1.047-.724-1.047-.746,0-1.543.972-1.8,2.1Z" fill="#2b2b2b"/>
        <path id="패스_346" data-name="패스 346" d="M247.165,96.331c.015-.341.063-.673.111-1.144h-.04a2.387,2.387,0,0,1-1.955,1.243c-.873,0-1.4-.6-1.4-1.695,0-1.827,1.212-4.517,4.114-4.517a4.488,4.488,0,0,1,1.375.195l-.87,3.439a10.78,10.78,0,0,0-.321,2.479Zm.947-5.342a2.048,2.048,0,0,0-.459-.046c-1.676,0-2.617,2.208-2.65,3.526-.022.756.16,1.187.69,1.187.754,0,1.56-1.186,1.855-2.386Z" fill="#2b2b2b"/>
        <path id="패스_347" data-name="패스 347" d="M249.562,96.33l.928-3.957c.209-.873.311-1.574.392-2.057h.978l-.127.948h.03a2.528,2.528,0,0,1,2.019-1.047,1.15,1.15,0,0,1,1.291,1.21,3.893,3.893,0,0,1-.144.987l-.917,3.916H252.9l.916-3.9a3.237,3.237,0,0,0,.11-.829c0-.372-.189-.61-.647-.61-.71,0-1.547.859-1.815,1.993l-.788,3.35Z" fill="#2b2b2b"/>
        <path id="패스_348" data-name="패스 348" d="M257.371,90.317l.24,3.361c.032.55.048.9.082,1.5h.032c.193-.519.415-.983.657-1.523l1.561-3.334h1.146L258.581,95.2a8.4,8.4,0,0,1-2.472,3.147,4.608,4.608,0,0,1-1.169.6l-.449-.762a4.97,4.97,0,0,0,1.124-.577,3.928,3.928,0,0,0,1.211-1.308.5.5,0,0,0,.058-.332l-.669-5.651Z" fill="#2b2b2b"/>
        <path id="패스_349" data-name="패스 349" d="M252.087,81h-171v1.187l171-.187c0,3,2.548,4.375,5.416,4.134,0-3.352-.008-6.657-.012-9.956-2.71-.213-5.4.822-5.4,4.822" fill="#4a4b4d"/>
        <path id="패스_350" data-name="패스 350" d="M258.806,75.31c-.625,0-.7.444-.7.928.01,1.622.007,3.245.008,4.867,0,1.645.008,3.29,0,4.935,0,.51.068.978.741.959.655-.019.728-.5.727-1q-.011-4.866-.014-9.732c0-.51-.111-.965-.764-.961" fill="#4a4b4d"/>
        <path id="패스_351" data-name="패스 351" d="M264.325,78.576c.27-.014.738.065.737-.669,0-.452-.3-.69-.787-.689l-2.843,0h-1.278c0,.524,0,.912,0,1.389,1.457,0,2.816.034,4.169-.036" fill="#4a4b4d"/>
        <path id="패스_352" data-name="패스 352" d="M264.3,83.793q-1.422,0-2.842,0h-1.279c0,.524,0,.912,0,1.389,1.457,0,2.816.034,4.169-.036.27-.014.738.065.737-.669,0-.452-.3-.69-.787-.689" fill="#4a4b4d"/>
      </g>
    </g>
  </g>
</svg>
