<svg id="sub-logo" xmlns="http://www.w3.org/2000/svg" xmlns:xlink="http://www.w3.org/1999/xlink" width="82.44" height="49.408" viewBox="0 0 82.44 49.408">
  <defs>
    <clipPath id="clip-path">
      <rect id="사각형_246" data-name="사각형 246" width="82.44" height="49.408" fill="#e8edf5"/>
    </clipPath>
    <clipPath id="clip-path-2">
      <rect id="사각형_245" data-name="사각형 245" width="77.978" height="44.947" fill="none"/>
    </clipPath>
  </defs>
  <g id="그룹_685" data-name="그룹 685" transform="translate(0 0)">
    <g id="그룹_684" data-name="그룹 684" clip-path="url(#clip-path)">
      <path id="패스_400" data-name="패스 400" d="M80.158,55.059H79.55a2.336,2.336,0,0,0-.4.034,2.341,2.341,0,0,0-.4-.034H78.1a2.317,2.317,0,0,0-.343.029,3.336,3.336,0,0,0-1.187-.022c-.058,0-.116-.007-.176-.007h-.534a2.308,2.308,0,0,0-.552.074,3.759,3.759,0,0,0-.908-.11,4.428,4.428,0,0,0-1.138.156,3.159,3.159,0,0,0-.97-.156,3.117,3.117,0,0,0-.5.04c-.044,0-.088,0-.132,0h-.539a2.328,2.328,0,0,0-.49.055,3.251,3.251,0,0,0-.759-.091,3.344,3.344,0,0,0-.649.062,3.248,3.248,0,0,0-.637-.062c-.014,0-.027,0-.041,0l.426-1.283a2.173,2.173,0,0,0,.139-.767,2.257,2.257,0,0,0-2.283-2.231h-.607a2.336,2.336,0,0,0-.4.034,2.341,2.341,0,0,0-.4-.034h-.658c-.063,0-.126.006-.189.011-.037,0-.073-.011-.111-.011h-.542l-.084,0a3.027,3.027,0,0,0-.478-.038,3.275,3.275,0,0,0-.62.06c-.037-.008-.072-.021-.111-.026a3.093,3.093,0,0,0-.474-.033,2.934,2.934,0,0,0-.482.04q-.069,0-.138,0H61a2.324,2.324,0,0,0-.507.06,3.435,3.435,0,0,0-1.932.093,3.222,3.222,0,0,0-1.1-.189,3.324,3.324,0,0,0-.531.043c-.058,0-.117-.007-.176-.007h-.534a2.329,2.329,0,0,0-.508.061,3.456,3.456,0,0,0-.806-.1,3.372,3.372,0,0,0-1.6.393,3.268,3.268,0,0,0-1.584-.393,3.512,3.512,0,0,0-.743.08,2.355,2.355,0,0,0-.449-.044h-.611c-.035,0-.069.008-.1.009a2.645,2.645,0,0,0-1.989-.866,2.735,2.735,0,0,0-1.18.27c-.012,0-.024,0-.037,0a2.338,2.338,0,0,0-.458.046l-.616.123a2.3,2.3,0,0,0-.939.422,3.711,3.711,0,0,0-.773.178c-.092-.035-.187-.066-.284-.093a2.265,2.265,0,0,0-1.217-.9,3.736,3.736,0,0,0-1.084-.152,3.5,3.5,0,0,0-.746.089,3.578,3.578,0,0,0-1.6.087,2.325,2.325,0,0,0-.5-.058H36.943l.818-4.58H45.47a2.269,2.269,0,0,0,2.253-1.864L48.312,40a2.187,2.187,0,0,0-.343-1.591h.842a2.284,2.284,0,0,0,2.129-1.422l1.346-3.381a2.178,2.178,0,0,0,.186-.883,2.257,2.257,0,0,0-2.283-2.231H39.575a2.368,2.368,0,0,0-.327.023,11.091,11.091,0,0,0-6.461,3.547,7.138,7.138,0,0,0-1.445-2.516A7.558,7.558,0,0,0,25.7,29.06l.438-2.472a2.193,2.193,0,0,0-.5-1.817,2.306,2.306,0,0,0-1.747-.794H16.038a2.269,2.269,0,0,0-2.25,1.85l-.572,3.228H10.453a9.538,9.538,0,0,0-9.21,7.87L.083,44.986a6.888,6.888,0,0,0,1.6,5.668,7.675,7.675,0,0,0,5.831,2.438l15.142.383h.059a9.342,9.342,0,0,0,5.74-2.061L27.1,59.224a2.192,2.192,0,0,0,.508,1.811,2.306,2.306,0,0,0,1.744.791h3.537a2.292,2.292,0,0,0,1.928-1.045A2.215,2.215,0,0,0,34.99,61a2.31,2.31,0,0,0,1.68.72h.537a2.357,2.357,0,0,0,.5-.054,2.35,2.35,0,0,0,.293.018h.422a2.307,2.307,0,0,0,.3-.02,2.346,2.346,0,0,0,.507.055h.56a2.3,2.3,0,0,0,.4-.041,3.2,3.2,0,0,0,.689.077,3.276,3.276,0,0,0,.511-.04c.045,0,.09,0,.135,0h.553a2.284,2.284,0,0,0,.308-.023,2.306,2.306,0,0,0,.231.023h.616a2.343,2.343,0,0,0,.352-.026,2.343,2.343,0,0,0,.352.026h.616a2.374,2.374,0,0,0,.424-.041,3.216,3.216,0,0,0,.695.078c.032,0,.064-.007.1-.008a2.268,2.268,0,0,0,.9.622,4.276,4.276,0,0,0,1.482.253,3.577,3.577,0,0,0,2.287-.745c.058-.047.111-.1.164-.144.088.006.175.012.265.012a5.041,5.041,0,0,0,.832-.07,2.324,2.324,0,0,0,.438.043h.613a2.37,2.37,0,0,0,.34-.025,2.377,2.377,0,0,0,.341.025h.613a2.375,2.375,0,0,0,.34-.025,2.375,2.375,0,0,0,.34.025h.613a2.308,2.308,0,0,0,.619-.094,3.823,3.823,0,0,0,.955.121,5.037,5.037,0,0,0,.832-.07,2.325,2.325,0,0,0,.438.043h.616a2.343,2.343,0,0,0,.352-.026,2.343,2.343,0,0,0,.352.026h.616a2.321,2.321,0,0,0,.549-.072,3.385,3.385,0,0,0,.822.1,4,4,0,0,0,.955-.1,2.3,2.3,0,0,0,.419-.149,3.687,3.687,0,0,0,1.366.253,4.179,4.179,0,0,0,.837-.092,3.559,3.559,0,0,0,.839.1,3.512,3.512,0,0,0,.9-.116,2.33,2.33,0,0,0,.575.08h.613a2.371,2.371,0,0,1,.681,0h.613c.021,0,.041,0,.061,0a2.29,2.29,0,0,0,1.8.873h.613a2.3,2.3,0,0,0,1.816-.885,3.215,3.215,0,0,0,.576.053,3.276,3.276,0,0,0,.511-.04c.045,0,.09,0,.135,0h.553a2.279,2.279,0,0,0,.308-.023c.077.008.152.023.231.023h.635a2.3,2.3,0,0,0,1.88.969,2.331,2.331,0,0,0,.621-.084,3.789,3.789,0,0,0,1.552-.89l.017-.017a5.127,5.127,0,0,0,1.225-2.167l.49-1.474a2.173,2.173,0,0,0,.139-.767,2.257,2.257,0,0,0-2.283-2.231M44.163,36.134l-.56,0,.56,0m-2.3.023c.189-.006.381-.011.576-.015s.389-.007.583-.008c-.195,0-.39,0-.583.008s-.386.008-.576.015-.374.013-.554.023a10.482,10.482,0,0,0-1.738.192,10.482,10.482,0,0,1,1.738-.192c.18-.009.365-.017.554-.023m1.737-.025-.578,0,.578,0M66.822,52.977l-.084.253ZM37.878,57.408l.082.269c.022.076.044.148.065.219l-.066-.219Zm-.67,2.083h0l.069-1.161c.018-.3.037-.622.047-.922-.01.3-.028.622-.047.922Zm.18-2.083h0c.005.025.01.049.016.074-.006-.025-.011-.049-.016-.074" transform="translate(0 -13.281)" fill="#e8edf5"/>
      <path id="패스_401" data-name="패스 401" d="M89.895,11.994c.853.636,1.776,1.279,2.669,1.9.857.6,1.744,1.215,2.534,1.8a2.328,2.328,0,0,0,2.866-.076,2.208,2.208,0,0,0,.709-1.093c.079.007.152.021.237.021a2.327,2.327,0,0,0,.759-.131,2.3,2.3,0,0,0,.993.232h.077a2.124,2.124,0,0,0,1.579-.7c.028.021.057.041.087.061.054.039.116.069.174.1s.1.068.165.1l.021.008.01.006a2.032,2.032,0,0,0,.637,1.455,2.246,2.246,0,0,0,.6.425,2.169,2.169,0,0,0,0,1.254,2.2,2.2,0,0,0,.143.348,2.2,2.2,0,0,0-.053.373v.026h0c0,.007,0,.015,0,.022v.005c0,.026,0,.051,0,.077a2.137,2.137,0,0,0,.448,1.365,2.247,2.247,0,0,0-.405.491,2.273,2.273,0,0,0-.156.313,2.276,2.276,0,0,0-1.115.709,2.341,2.341,0,0,0-.365.575,2.293,2.293,0,0,0-1.509.208,2.216,2.216,0,0,0-1.2,2.3c.1.646.533,2.26,1.431,5.534.366,1.334.713,2.594.914,3.38a3.743,3.743,0,0,0,2.99,3.088,3.849,3.849,0,0,0,.707.066,3.51,3.51,0,0,0,2.9-1.514,3.607,3.607,0,0,0,0-4.071,3.269,3.269,0,0,0,.439.03,3.5,3.5,0,0,0,2.492-1.066,3.554,3.554,0,0,0,1.048-1.932l.387.212a3.8,3.8,0,0,0,1.821.479,3.46,3.46,0,0,0,3.286-2.426,3.424,3.424,0,0,0-.174-2.834,3.715,3.715,0,0,0-2.426-1.752c-.072-.018-.144-.04-.216-.058a3.369,3.369,0,0,0,1.322-2.7,3.626,3.626,0,0,0-.639-2.144l.012,0a3.89,3.89,0,0,0,2.746-2.1,3.34,3.34,0,0,0-.173-2.978,3.434,3.434,0,0,0-3.075-1.938,4.42,4.42,0,0,0-2.126.6l-.122.066a3.53,3.53,0,0,0-.878-2.708,3.5,3.5,0,0,0-2.187-1.234c.079-.143.156-.281.235-.427a3.384,3.384,0,0,0,.288-2.76,3.425,3.425,0,0,0-1.922-1.971,4.128,4.128,0,0,0-1.658-.364A3.3,3.3,0,0,0,104,3.046c-.069.218-.13.439-.2.657-.027-.035-.05-.073-.079-.108a3.606,3.606,0,0,0-2.7-1.265c-.055,0-.11,0-.164,0a3.558,3.558,0,0,0-2.043.616A3.667,3.667,0,0,0,95.881.059,3.963,3.963,0,0,0,95.211,0a3.542,3.542,0,0,0-2.875,5.664,3.559,3.559,0,0,0-.467-.032,3.717,3.717,0,0,0-.745.076,3.382,3.382,0,0,0-2.671,2.438,3.453,3.453,0,0,0,1.442,3.847m21.067-1.825a1.2,1.2,0,0,1-.379.394,1.2,1.2,0,0,0,.379-.394m-5.9,3.972c.911-.595,1.842-1.183,2.77-1.775C106.905,12.958,105.974,13.546,105.063,14.141ZM100.249,4.7a.98.98,0,0,1,.119-.059.98.98,0,0,0-.119.059m.231-.091a1.226,1.226,0,0,1,.137-.034,1.226,1.226,0,0,0-.137.034M95.95,13.008c.137.215.253.4.342.549-.089-.148-.205-.334-.342-.549m2.182-1.969c-.069-.121-.114-.2-.114-.2s.045.081.114.2m-2.646,1.25c-.2-.307-.419-.64-.644-.979.224.339.444.672.644.979M92.743,8.256c-.03-.03-.06-.058-.091-.085.032.027.062.055.091.085m.308.377.227.336c.16.237.336.5.52.772s.376.562.57.853c-.194-.291-.386-.579-.57-.853s-.359-.535-.52-.772l-.227-.336c-.039-.058-.08-.114-.122-.168.042.054.083.11.122.168m-.163-.217c-.03-.037-.06-.072-.092-.106.032.034.062.07.092.106m3.6,5.51c.005,0,0-.021-.013-.051.014.03.018.047.014.051Zm8.905,15.433c-.166-.3-.337-.6-.51-.908s-.348-.617-.522-.923c.174.306.349.616.522.923s.344.612.51.908l.48.856.294.522-.294-.522-.48-.856m-2.874-4.913c.078.116.161.245.25.385-.089-.14-.172-.269-.25-.385m.68,1.083c-.1-.169-.2-.33-.293-.48.094.15.192.311.293.48m.156,3.3-.045-.162.045.162m.66-1.906c-.228-.4-.451-.78-.661-1.134.21.353.433.737.661,1.134m2.41,6.943c-.014.008-.028.014-.042.021.014-.007.029-.013.042-.021m.242-2.251c-.072-.124-.151-.261-.234-.408.084.147.162.284.234.408m1.646-3.56c.025.025.051.044.076.067-.025-.023-.052-.042-.076-.067m.308-9.338h0c.678.163,1.363.334,2.044.494-.681-.16-1.366-.331-2.044-.494m4.58-1.383a1.468,1.468,0,0,1,.157-.008c.025,0,.046.006.07.007a1.376,1.376,0,0,0-.227,0m.344.01a1.119,1.119,0,0,1,.135.029,1.119,1.119,0,0,0-.135-.029m.237.062a.877.877,0,0,1,.115.057.877.877,0,0,0-.115-.057m.2.109a.919.919,0,0,1,.1.082.919.919,0,0,0-.1-.082m.164.151a1.083,1.083,0,0,1,.076.107,1.083,1.083,0,0,0-.076-.107m.127.188a1.2,1.2,0,0,1,.056.132,1.2,1.2,0,0,0-.056-.132m.09.22a1.558,1.558,0,0,1,.037.165,1.558,1.558,0,0,0-.037-.165m.053.247a1.915,1.915,0,0,1,.016.269,1.469,1.469,0,0,1-.025.254,1.469,1.469,0,0,0,.025-.254,1.915,1.915,0,0,0-.016-.269m-.029.6a1.249,1.249,0,0,1-.045.153,1.273,1.273,0,0,0,.045-.153m-.083.234a1.184,1.184,0,0,1-.064.121,1.1,1.1,0,0,0,.064-.121m-.118.194a1.053,1.053,0,0,1-.082.1,1.053,1.053,0,0,0,.082-.1m-.15.157a.817.817,0,0,1-.1.073.857.857,0,0,0,.1-.073m-.178.119a.938.938,0,0,1-.113.049.938.938,0,0,0,.113-.049m-.2.077a1,1,0,0,1-.128.022,1,1,0,0,0,.128-.022m-.224.032c-.013,0-.024,0-.037,0a1.213,1.213,0,0,1-.181-.014,1.212,1.212,0,0,0,.218.01m-1.391-4.516h0c1.149-.3,2.3-.594,3.442-.9-1.145.308-2.293.606-3.442.9M102.4,24.282a2.955,2.955,0,0,0-.347-.432,2.955,2.955,0,0,1,.347.432m1.382,6.128c-.086-.316-.177-.646-.269-.98.092.334.182.663.269.98l.168.614-.168-.614m.573,2.14c-.039-.153-.084-.324-.132-.509.049.184.094.356.132.509.021.083.044.166.068.247-.024-.081-.047-.164-.068-.247m-.327-1.235.094.348-.094-.348m1.778,2.7h.06c-.011,0-.02,0-.03,0l-.03,0m.342-.037-.018.006.018-.006m.479-.259.039-.037-.039.037m.225-.25h0a1.245,1.245,0,0,0,.215-.486,1.242,1.242,0,0,1-.215.486m1.7-5.212c.032.021.064.039.1.057-.032-.018-.065-.035-.1-.057m.549.2a.967.967,0,0,0,.114.006c-.014,0-.028,0-.042,0s-.048-.009-.072-.011m-.285-.061c.035.013.069.024.105.033-.036-.009-.07-.021-.105-.033m.982-.137a1.64,1.64,0,0,0,.245-.2,1.64,1.64,0,0,1-.245.2m-.5.195a1.051,1.051,0,0,0,.161-.034,1.051,1.051,0,0,1-.161.034m.251-.065a1.193,1.193,0,0,0,.169-.084,1.193,1.193,0,0,1-.169.084m.845-.83a.983.983,0,0,0,.069-.5.983.983,0,0,1-.069.5m4.524-1.4c-.018,0-.038-.007-.057-.008a1.05,1.05,0,0,0,.15,0c-.031,0-.062.008-.093.008m-.38-.062c.034.01.068.015.1.023-.034-.008-.067-.012-.1-.023m1.012-.147a1.175,1.175,0,0,0,.18-.163,1.175,1.175,0,0,1-.18.163m-.483.2a1.039,1.039,0,0,0,.222-.054,1.039,1.039,0,0,1-.222.054m.261-.071a1.08,1.08,0,0,0,.172-.092,1.08,1.08,0,0,1-.172.092m.6-.57a1.925,1.925,0,0,0,.123-.272,1.9,1.9,0,0,1-.123.272m-.174.257a1.467,1.467,0,0,0,.137-.194,1.467,1.467,0,0,1-.137.194m.692-13.633a1.922,1.922,0,0,1,.187.288,1.922,1.922,0,0,0-.187-.288m-.023-.031a1.3,1.3,0,0,0-.2-.193,1.3,1.3,0,0,1,.2.193m-.232-.22a1.019,1.019,0,0,0-.209-.118,1.019,1.019,0,0,1,.209.118m-.247-.132a.98.98,0,0,0-.227-.055.98.98,0,0,1,.227.055m-.255-.057a1.182,1.182,0,0,0-.19,0c.029,0,.059-.008.088-.008s.069,0,.1.007m-.841.175c-.092.041-.185.086-.279.137.094-.051.187-.1.279-.137m.544-.163a1.631,1.631,0,0,0-.165.034,1.631,1.631,0,0,1,.165-.034m-.269.061c-.062.019-.125.043-.187.068.063-.025.126-.049.187-.068m-4.071-1.8a1.05,1.05,0,0,0-.076-.688,1.05,1.05,0,0,1,.076.688m-.555-1.328c-.023-.019-.048-.031-.071-.047.023.017.048.029.071.047m-1.467.122a1.223,1.223,0,0,1,.18-.17,1.223,1.223,0,0,0-.18.17m.245-.211a1.029,1.029,0,0,1,.132-.079,1.029,1.029,0,0,0-.132.079m.215-.108a.941.941,0,0,1,.126-.041.941.941,0,0,0-.126.041m.219-.051a.891.891,0,0,1,.1-.012l.02,0a.943.943,0,0,0-.123.009m.254.007c.032,0,.065.007.1.015-.032-.008-.064-.01-.1-.015m.231.065c.03.012.06.021.09.036-.03-.015-.06-.024-.09-.036m-2.917-5.563c-.046,0-.091,0-.135,0,.026,0,.05-.005.076-.005s.04.007.059.007m.327.048c-.034-.008-.066-.013-.1-.02.033.006.066.011.1.02m-.975.121a.964.964,0,0,0-.167.144.964.964,0,0,1,.167-.144m.457-.167a1.038,1.038,0,0,0-.213.044,1.038,1.038,0,0,1,.213-.044m-.241.055a.923.923,0,0,0-.169.082.923.923,0,0,1,.169-.082m-.555.509a1.564,1.564,0,0,0-.106.251,1.564,1.564,0,0,1,.106-.251m.159-.239a1.227,1.227,0,0,0-.128.182,1.2,1.2,0,0,1,.128-.182m-4.535,1.742a1.037,1.037,0,0,1,.259.7,1.037,1.037,0,0,0-.259-.7,1.117,1.117,0,0,0-.414-.282,1.117,1.117,0,0,1,.414.282m-.98-.4a1.584,1.584,0,0,0-.186.009c.039,0,.076-.01.117-.01h.069m-.777.2a.982.982,0,0,0-.1.083.982.982,0,0,1,.1-.083m-.177.149a1.12,1.12,0,0,0-.079.105,1.12,1.12,0,0,1,.079-.105m-.136.185a1.037,1.037,0,0,0-.056.13,1.037,1.037,0,0,1,.056-.13m-.093.216a1.164,1.164,0,0,0-.031.163,1.164,1.164,0,0,1,.031-.163m-.046.244a1.453,1.453,0,0,0,0,.267,1.453,1.453,0,0,1,0-.267M95.483,2.256a1.528,1.528,0,0,0-.334-.017c.021,0,.041-.007.062-.007a1.6,1.6,0,0,1,.272.024m-.455,0a1.244,1.244,0,0,0-.212.047,1.234,1.234,0,0,1,.212-.047m-.325.087a1.229,1.229,0,0,0-.2.109,1.229,1.229,0,0,1,.2-.109m-.286.167a1.461,1.461,0,0,0-.248.244,1.461,1.461,0,0,1,.248-.244M92.591,8.122c-.032-.025-.065-.048-.1-.07.034.022.067.045.1.07m-.163-.109a1.121,1.121,0,0,0-.117-.056,1.121,1.121,0,0,1,.117.056m-.368-.133a1.154,1.154,0,0,0-.206-.014h.015a1.167,1.167,0,0,1,.192.016m.192.051a1.1,1.1,0,0,0-.182-.049,1.1,1.1,0,0,1,.182.049" transform="translate(-47.979 -0.001)" fill="#e8edf5"/>
    </g>
  </g>
  <g id="그룹_683" data-name="그룹 683" transform="translate(2.231 2.231)">
    <path id="패스_353" data-name="패스 353" d="M77.055,83.744h-.9v.97h1.025v.418H75.55V82.085h1.559V82.5h-.958v.836h.9Z" transform="translate(-40.976 -45.466)" fill="#545454"/>
    <g id="그룹_682" data-name="그룹 682">
      <g id="그룹_681" data-name="그룹 681" clip-path="url(#clip-path-2)">
        <path id="패스_354" data-name="패스 354" d="M81.232,82.83h-.7v-.1c0-.271.079-.438.322-.438a.7.7,0,0,1,.192.029l.107-.373a1.271,1.271,0,0,0-.312-.041,1.01,1.01,0,0,0-.66.193.79.79,0,0,0-.266.636v.1h-.368v.35h.368v1.851h.617V83.18h.7Z" transform="translate(-43.163 -45.364)" fill="#545454"/>
        <path id="패스_355" data-name="패스 355" d="M84.309,82.217a.813.813,0,0,1,.239.033l.079-.377a1.423,1.423,0,0,0-.408-.052.976.976,0,0,0-.623.2.8.8,0,0,0-.272.658v2.31h.617V83.134h.5v-.35h-.5v-.119c0-.234.086-.449.368-.449" transform="translate(-45.212 -45.32)" fill="#545454"/>
        <path id="패스_356" data-name="패스 356" d="M86.642,85.167a.559.559,0,0,0,.627.625,1.613,1.613,0,0,0,.5-.078l.087.348a2.228,2.228,0,0,1-.7.1,1,1,0,0,1-1.114-1.093A1.054,1.054,0,0,1,87.089,83.9c.592,0,.89.418.89,1.009a1.5,1.5,0,0,1-.016.258Zm.765-.344c.005-.353-.143-.563-.362-.563-.268,0-.389.305-.4.563Z" transform="translate(-46.687 -46.471)" fill="#545454"/>
        <path id="패스_357" data-name="패스 357" d="M92.607,86.1a1.371,1.371,0,0,1-.474.073,1.021,1.021,0,0,1-1.112-1.11,1.122,1.122,0,0,1,1.212-1.149,1.192,1.192,0,0,1,.4.064l-.094.383a.946.946,0,0,0-.3-.049c-.4,0-.609.336-.609.741,0,.45.232.724.609.724a.805.805,0,0,0,.3-.053Z" transform="translate(-49.389 -46.478)" fill="#545454"/>
        <path id="패스_358" data-name="패스 358" d="M95.91,82.66v.59h.546v.35H95.91v1.142c0,.269.134.338.288.338a1.192,1.192,0,0,0,.191-.014l.012.376a1.78,1.78,0,0,1-.4.037.791.791,0,0,1-.5-.137.678.678,0,0,1-.207-.6V83.6h-.337v-.35h.337v-.467Z" transform="translate(-51.524 -45.784)" fill="#545454"/>
        <path id="패스_359" data-name="패스 359" d="M99.645,82.341c0,.166-.139.278-.341.278a.29.29,0,0,1-.32-.278.335.335,0,0,1,.661,0m-.634.577h.617v2.2h-.617Z" transform="translate(-53.71 -45.452)" fill="#545454"/>
        <path id="패스_360" data-name="패스 360" d="M101.765,83.982l.278,1.1c.041.174.083.371.121.579h.014c.032-.205.075-.39.115-.579l.274-1.1h.609l-.746,2.2h-.56l-.754-2.2Z" transform="translate(-54.866 -46.517)" fill="#545454"/>
        <path id="패스_361" data-name="패스 361" d="M106.545,85.167a.559.559,0,0,0,.627.625,1.613,1.613,0,0,0,.5-.078l.087.348a2.228,2.228,0,0,1-.7.1,1,1,0,0,1-1.114-1.093,1.054,1.054,0,0,1,1.047-1.172c.592,0,.89.418.89,1.009a1.5,1.5,0,0,1-.016.258Zm.765-.344c.005-.353-.143-.563-.362-.563-.268,0-.389.305-.4.563Z" transform="translate(-57.487 -46.471)" fill="#545454"/>
        <path id="패스_362" data-name="패스 362" d="M113.52,85.167a.559.559,0,0,0,.627.625,1.613,1.613,0,0,0,.5-.078l.087.348a2.23,2.23,0,0,1-.7.1,1,1,0,0,1-1.114-1.093,1.054,1.054,0,0,1,1.047-1.172c.592,0,.89.418.89,1.009a1.5,1.5,0,0,1-.016.258Zm.765-.344c.005-.353-.143-.563-.362-.563-.268,0-.389.305-.4.563Z" transform="translate(-61.271 -46.471)" fill="#545454"/>
        <path id="패스_363" data-name="패스 363" d="M118.109,84.557c0-.248-.014-.425-.023-.62h.535l.031.259h.012a.817.817,0,0,1,.665-.3c.469,0,.719.285.719.8v1.442h-.617v-1.4c0-.22-.059-.435-.328-.435a.355.355,0,0,0-.345.269.593.593,0,0,0-.031.2v1.361h-.617Z" transform="translate(-64.075 -46.472)" fill="#545454"/>
        <path id="패스_364" data-name="패스 364" d="M123.984,85.167a.559.559,0,0,0,.627.625,1.613,1.613,0,0,0,.5-.078l.087.348a2.23,2.23,0,0,1-.7.1,1,1,0,0,1-1.114-1.093,1.054,1.054,0,0,1,1.047-1.172c.592,0,.89.418.89,1.009a1.5,1.5,0,0,1-.016.258Zm.765-.344c.005-.353-.143-.563-.362-.563-.268,0-.389.305-.4.563Z" transform="translate(-66.949 -46.471)" fill="#545454"/>
        <path id="패스_365" data-name="패스 365" d="M128.568,84.557c0-.2-.014-.433-.023-.62h.539l.032.332h.018a.655.655,0,0,1,.571-.368.781.781,0,0,1,.131.008v.482a1.036,1.036,0,0,0-.131,0,.514.514,0,0,0-.494.378.763.763,0,0,0-.026.211v1.163h-.617Z" transform="translate(-69.75 -46.472)" fill="#545454"/>
        <path id="패스_366" data-name="패스 366" d="M133.732,83.937c-.012.179-.027.395-.027.692v1.245c0,.522-.1.762-.312.929a1.324,1.324,0,0,1-.84.239,1.966,1.966,0,0,1-.666-.106l.123-.374a1.515,1.515,0,0,0,.532.095c.368,0,.549-.187.549-.6v-.173h-.011a.6.6,0,0,1-.52.24c-.571,0-.855-.494-.855-1.075,0-.767.445-1.152.92-1.152a.593.593,0,0,1,.52.271h.011l.031-.235Zm-.64.783a.465.465,0,0,0-.027-.161.328.328,0,0,0-.315-.25c-.293,0-.431.311-.431.728,0,.479.182.708.424.708a.317.317,0,0,0,.317-.229.453.453,0,0,0,.033-.184Z" transform="translate(-71.465 -46.472)" fill="#545454"/>
        <path id="패스_367" data-name="패스 367" d="M137.449,83.982l.319,1.2c.04.148.066.278.1.407h.011c.025-.119.059-.262.091-.4l.278-1.2h.606l-.523,1.571a3.052,3.052,0,0,1-.658,1.255,1.493,1.493,0,0,1-.58.342l-.2-.415a1.248,1.248,0,0,0,.384-.225,1.043,1.043,0,0,0,.244-.31.218.218,0,0,0,.035-.1.21.21,0,0,0-.018-.082l-.744-2.034Z" transform="translate(-74.223 -46.517)" fill="#545454"/>
        <path id="패스_368" data-name="패스 368" d="M77.773,93.625c-.022-.341-.048-.756-.037-1.093h-.019c-.076.333-.18.7-.274.993l-.4,1.24h-.423l-.383-1.205a9.634,9.634,0,0,1-.274-1.028h-.017c0,.344-.031.748-.054,1.109L75.821,94.8h-.538l.258-3.047H76.2l.376,1.234c.118.393.216.713.292,1.059h.014c.067-.343.154-.662.266-1.059l.368-1.234h.664l.231,3.047h-.56Z" transform="translate(-40.849 -50.821)" fill="#545454"/>
        <path id="패스_369" data-name="패스 369" d="M84.307,95.806l-.036-.224h-.014a.747.747,0,0,1-.6.261.657.657,0,0,1-.708-.651c0-.566.611-.8,1.248-.809v-.058c0-.23-.114-.391-.42-.391a1.152,1.152,0,0,0-.525.122l-.118-.329a1.908,1.908,0,0,1,.777-.157c.724,0,.91.388.91.857v.88a2.674,2.674,0,0,0,.036.5Zm-.09-1.1c-.24,0-.676.055-.676.438a.3.3,0,0,0,.305.338.356.356,0,0,0,.355-.252.361.361,0,0,0,.015-.112Z" transform="translate(-45.011 -51.827)" fill="#545454"/>
        <path id="패스_370" data-name="패스 370" d="M88.274,94.226c0-.248-.014-.425-.023-.62h.535l.031.259h.012a.817.817,0,0,1,.665-.3c.469,0,.719.285.719.8v1.442H89.6v-1.4c0-.22-.059-.435-.328-.435a.355.355,0,0,0-.345.269.593.593,0,0,0-.031.2v1.361h-.617Z" transform="translate(-47.886 -51.827)" fill="#545454"/>
        <path id="패스_371" data-name="패스 371" d="M94.8,95.806l-.036-.224h-.014a.747.747,0,0,1-.6.261.657.657,0,0,1-.708-.651c0-.566.611-.8,1.248-.809v-.058c0-.23-.114-.391-.42-.391a1.152,1.152,0,0,0-.525.122l-.118-.329a1.908,1.908,0,0,1,.777-.157c.724,0,.91.388.91.857v.88a2.674,2.674,0,0,0,.036.5Zm-.09-1.1c-.24,0-.676.055-.676.438a.3.3,0,0,0,.305.338.356.356,0,0,0,.355-.252.361.361,0,0,0,.015-.112Z" transform="translate(-50.702 -51.827)" fill="#545454"/>
        <path id="패스_372" data-name="패스 372" d="M100.586,93.606c-.012.179-.027.395-.027.692v1.245c0,.522-.1.762-.312.929a1.324,1.324,0,0,1-.84.239,1.966,1.966,0,0,1-.665-.106l.123-.374a1.515,1.515,0,0,0,.531.095c.368,0,.549-.187.549-.6v-.173h-.011a.6.6,0,0,1-.52.24c-.571,0-.855-.494-.855-1.075,0-.768.445-1.152.92-1.152a.591.591,0,0,1,.52.271h.012l.031-.235Zm-.64.783a.465.465,0,0,0-.027-.161.328.328,0,0,0-.315-.25c-.293,0-.431.311-.431.728,0,.479.182.708.424.708a.317.317,0,0,0,.317-.229A.453.453,0,0,0,99.946,95Z" transform="translate(-53.48 -51.827)" fill="#545454"/>
        <path id="패스_373" data-name="패스 373" d="M104.523,94.836a.559.559,0,0,0,.627.625,1.613,1.613,0,0,0,.5-.078l.087.348a2.228,2.228,0,0,1-.7.1,1,1,0,0,1-1.114-1.093,1.054,1.054,0,0,1,1.047-1.172c.592,0,.89.418.89,1.009a1.493,1.493,0,0,1-.016.258Zm.765-.344c.005-.353-.143-.563-.362-.563-.268,0-.389.3-.4.563Z" transform="translate(-56.39 -51.827)" fill="#545454"/>
        <path id="패스_374" data-name="패스 374" d="M109.112,94.226c0-.248-.014-.425-.023-.62h.538l.031.263h.012a.815.815,0,0,1,.654-.3.611.611,0,0,1,.6.317h.011a.825.825,0,0,1,.282-.236.917.917,0,0,1,.392-.081c.448,0,.7.269.7.813v1.424H111.7V94.474c0-.266-.044-.5-.32-.5a.354.354,0,0,0-.341.258.633.633,0,0,0-.021.175v1.4h-.613V94.4c0-.2-.036-.427-.314-.427a.355.355,0,0,0-.343.269.617.617,0,0,0-.025.176v1.391h-.613Z" transform="translate(-59.193 -51.827)" fill="#545454"/>
        <path id="패스_375" data-name="패스 375" d="M117.754,94.836a.559.559,0,0,0,.627.625,1.613,1.613,0,0,0,.5-.078l.087.348a2.228,2.228,0,0,1-.7.1,1,1,0,0,1-1.114-1.093,1.054,1.054,0,0,1,1.047-1.172c.592,0,.89.418.89,1.009a1.493,1.493,0,0,1-.016.258Zm.765-.344c.005-.353-.143-.563-.362-.563-.268,0-.389.3-.4.563Z" transform="translate(-63.569 -51.827)" fill="#545454"/>
        <path id="패스_376" data-name="패스 376" d="M122.343,94.226c0-.248-.014-.425-.023-.62h.535l.031.259h.012a.817.817,0,0,1,.665-.3c.469,0,.719.285.719.8v1.442h-.617v-1.4c0-.22-.059-.435-.328-.435a.355.355,0,0,0-.345.269.593.593,0,0,0-.031.2v1.361h-.617Z" transform="translate(-66.372 -51.827)" fill="#545454"/>
        <path id="패스_377" data-name="패스 377" d="M128.285,92.329v.59h.545v.35h-.545V94.41c0,.269.134.338.288.338a1.2,1.2,0,0,0,.191-.013l.012.376a1.777,1.777,0,0,1-.4.037.791.791,0,0,1-.5-.137.678.678,0,0,1-.207-.6V93.269h-.337v-.35h.337v-.467Z" transform="translate(-69.091 -51.14)" fill="#545454"/>
        <path id="패스_378" data-name="패스 378" d="M134.763,95.768a1.37,1.37,0,0,1-.474.073,1.021,1.021,0,0,1-1.112-1.11,1.122,1.122,0,0,1,1.212-1.149,1.192,1.192,0,0,1,.4.064l-.094.383a.947.947,0,0,0-.3-.049c-.4,0-.609.336-.609.741,0,.45.232.724.609.724a.809.809,0,0,0,.3-.053Z" transform="translate(-72.263 -51.833)" fill="#545454"/>
        <path id="패스_379" data-name="패스 379" d="M139.1,94.7a1,1,0,0,1-1.012,1.142c-.6,0-1-.391-1-1.132a1.016,1.016,0,0,1,1.025-1.142c.59,0,.992.406.992,1.132m-1.4,0c0,.371.08.767.408.767.307,0,.377-.435.377-.767s-.07-.762-.389-.762-.4.443-.4.762" transform="translate(-74.381 -51.827)" fill="#545454"/>
        <path id="패스_380" data-name="패스 380" d="M142.473,94.226c0-.248-.014-.425-.023-.62h.538l.031.263h.012a.815.815,0,0,1,.654-.3.61.61,0,0,1,.6.317h.011a.826.826,0,0,1,.282-.236.917.917,0,0,1,.392-.081c.448,0,.7.269.7.813v1.424h-.613V94.474c0-.266-.044-.5-.32-.5a.354.354,0,0,0-.341.258.632.632,0,0,0-.021.175v1.4h-.613V94.4c0-.2-.036-.427-.314-.427a.355.355,0,0,0-.343.269.617.617,0,0,0-.025.176v1.391h-.613Z" transform="translate(-77.295 -51.827)" fill="#545454"/>
        <path id="패스_381" data-name="패스 381" d="M150.72,94.3c0-.3-.014-.508-.023-.692h.539l.032.266h.011a.679.679,0,0,1,.593-.3c.559,0,.844.472.844,1.133,0,.8-.435,1.141-.895,1.141a.564.564,0,0,1-.477-.232h-.011v1.064h-.614Zm.614.7a.484.484,0,0,0,.031.184.327.327,0,0,0,.318.259c.312,0,.419-.347.419-.736,0-.436-.135-.731-.417-.731a.357.357,0,0,0-.326.283.454.454,0,0,0-.025.161Z" transform="translate(-81.77 -51.827)" fill="#545454"/>
        <path id="패스_382" data-name="패스 382" d="M157.133,95.806l-.036-.224h-.014a.747.747,0,0,1-.6.261.657.657,0,0,1-.708-.651c0-.566.611-.8,1.248-.809v-.058c0-.23-.114-.391-.42-.391a1.152,1.152,0,0,0-.525.122l-.118-.329a1.908,1.908,0,0,1,.777-.157c.724,0,.91.388.91.857v.88a2.672,2.672,0,0,0,.036.5Zm-.09-1.1c-.24,0-.676.055-.676.438a.3.3,0,0,0,.305.338.357.357,0,0,0,.356-.252.375.375,0,0,0,.015-.112Z" transform="translate(-84.527 -51.827)" fill="#545454"/>
        <path id="패스_383" data-name="패스 383" d="M161.1,94.226c0-.248-.014-.425-.023-.62h.535l.031.259h.012a.817.817,0,0,1,.665-.3c.469,0,.719.285.719.8v1.442h-.617v-1.4c0-.22-.059-.435-.328-.435a.355.355,0,0,0-.345.269.593.593,0,0,0-.031.2v1.361H161.1Z" transform="translate(-87.402 -51.827)" fill="#545454"/>
        <path id="패스_384" data-name="패스 384" d="M166.64,93.651l.319,1.2c.04.148.066.278.1.407h.011c.025-.118.059-.262.091-.4l.278-1.2h.606l-.523,1.571a3.052,3.052,0,0,1-.658,1.255,1.488,1.488,0,0,1-.58.341l-.2-.415a1.255,1.255,0,0,0,.384-.224,1.05,1.05,0,0,0,.244-.311.223.223,0,0,0,.035-.1.212.212,0,0,0-.018-.082l-.744-2.034Z" transform="translate(-90.063 -51.872)" fill="#545454"/>
        <path id="패스_385" data-name="패스 385" d="M37.342,36.8s-3.815.538-5.51,3.455a17.962,17.962,0,0,0-1.082,3.455H28.23l.346-2.4a5.107,5.107,0,0,0-5.243-5.95H8.18a7.223,7.223,0,0,0-6.957,5.95L.061,49.369c-.472,3.272,1.85,5.566,5.205,5.566l15.19.384a7.224,7.224,0,0,0,6.958-5.95l.106-.734H24.053c-.367,1.889-1.106,2.845-3.241,2.845H7.824c-2.355,0-4.07-.774-3.739-3.071l.152-1.248H24.28v0h3.452v0h2.231L27.109,63.668h3.542L33.6,47.162h9.642l.59-3.455H34.194l.393-1.344a2.07,2.07,0,0,1,.787-.96,3.466,3.466,0,0,1,1.968-.96,45.274,45.274,0,0,1,6.888-.192h2.361L47.968,36.8ZM4.659,43.707l.134-1.1c.331-2.3,1.462-3.6,3.817-3.6H22.583c2.355,0,2.692,1.158,2.362,3.455l-.177,1.248Z" transform="translate(0 -19.584)" fill="#2b2b2b"/>
        <path id="패스_386" data-name="패스 386" d="M131.215,44.855c-2.966-.733-5.829-1.847-8.949-2.333.124.155,5.474,3.325,8.11,4.753a1.3,1.3,0,1,0,.838-2.421" transform="translate(-66.343 -23.552)" fill="#329e37"/>
        <path id="패스_387" data-name="패스 387" d="M117.045,22.34h0" transform="translate(-63.491 -12.365)" fill="#329e37"/>
        <path id="패스_388" data-name="패스 388" d="M121.839,3.269a1.064,1.064,0,0,0-.551-1.649c-.794-.347-1.5-.178-1.76.656-.888,2.808-1.595,5.682-2.442,8.5.881-1.289,1.607-2.125,2.293-3.244q1.288-2.1,2.459-4.266" transform="translate(-63.532 -0.803)" fill="#329e37"/>
        <path id="패스_389" data-name="패스 389" d="M132.91,21.908c-.508-.956-1.272-.847-2.068-.416-2.291,1.24-7.754,4.294-8.378,4.72.184,0,1.957-.5,1.957-.5,2.446-.631,4.9-1.246,7.336-1.9,1.219-.327,1.619-1.029,1.153-1.9" transform="translate(-66.45 -11.727)" fill="#329e37"/>
        <path id="패스_390" data-name="패스 390" d="M100.145,8.175q-.918-3.355-1.835-6.71c-.177-.652-.361-1.3-1.181-1.441a1.308,1.308,0,0,0-1.315.494c-.511.648-.183,1.245.162,1.83l3.692,6.257s.83,1.486.893,1.484c-.042-.085-.282-1.381-.416-1.914Z" transform="translate(-51.846 0)" fill="#329e37"/>
        <path id="패스_391" data-name="패스 391" d="M113.391,48.46c.143.94,1.75,6.536,2.3,8.7.171.665.4,1.288,1.2,1.438a1.221,1.221,0,0,0,1.3-.523c.468-.662.15-1.266-.191-1.852-1.155-1.986-3.93-7.137-4.614-7.764" transform="translate(-61.527 -26.841)" fill="#329e37"/>
        <path id="패스_392" data-name="패스 392" d="M124.243,49.086c-1.659-1.256-3.555-2.372-5.231-3.606-.067.079,2.275,3.591,3.473,5.276a1.19,1.19,0,0,0,1.955.257,1.158,1.158,0,0,0-.2-1.926" transform="translate(-64.576 -25.191)" fill="#329e37"/>
        <path id="패스_393" data-name="패스 393" d="M119.974,19.524c1.824-1.189,3.73-2.351,5.527-3.577.7-.477.586-1.176.108-1.746a1.043,1.043,0,0,0-1.665-.071,48.9,48.9,0,0,0-3.97,5.394" transform="translate(-65.098 -7.615)" fill="#329e37"/>
        <path id="패스_394" data-name="패스 394" d="M89.3,12.654a1.144,1.144,0,0,0-.938.851,1.3,1.3,0,0,0,.627,1.478c1.646,1.225,3.564,2.481,5.21,3.7.077-.064-2.3-3.611-3.437-5.293a1.367,1.367,0,0,0-1.461-.74" transform="translate(-47.919 -6.993)" fill="#329e37"/>
        <path id="패스_395" data-name="패스 395" d="M122.866,35.8c0-.031,0-.062,0,0" transform="translate(-66.668 -19.811)" fill="#329e37"/>
        <path id="패스_396" data-name="패스 396" d="M130.922,35.1c.008-.769-.41-1.341-1.234-1.257-2.18.224-4.648.609-6.822.89,2.184.408,4.64,1.168,6.836,1.5a1.055,1.055,0,0,0,1.221-1.133" transform="translate(-66.668 -18.741)" fill="#329e37"/>
        <path id="패스_397" data-name="패스 397" d="M122.864,35.847c0,.062,0,.031,0,0" transform="translate(-66.666 -19.855)" fill="#329e37"/>
        <path id="패스_398" data-name="패스 398" d="M109.464,5.215a1.092,1.092,0,0,0-1.228,1.258c.215,2.028.682,4.582.959,6.6a64.1,64.1,0,0,0,1.482-6.461,1.132,1.132,0,0,0-1.214-1.4" transform="translate(-58.725 -2.888)" fill="#329e37"/>
        <path id="패스_399" data-name="패스 399" d="M36.461,27.864H28.6l.69-3.887h7.859Z" transform="translate(-15.52 -13.28)" fill="#329e37"/>
      </g>
    </g>
  </g>
</svg>
